<svg width="16" height="9" viewBox="0 0 16 9" fill="none" xmlns="http://www.w3.org/2000/svg">
<mask id="path-1-outside-1_23_5" maskUnits="userSpaceOnUse" x="-1" y="-1" width="19" height="11" fill="black">
<rect fill="white" x="-1" y="-1" width="19" height="11"/>
<path d="M0.66 8V0.7H3.01C3.75 0.7 4.34 0.87 4.78 1.21C5.22 1.54333 5.44 1.99667 5.44 2.57C5.44 2.89 5.36333 3.17 5.21 3.41C5.06333 3.65 4.86333 3.83667 4.61 3.97C4.36333 4.10333 4.09333 4.17 3.8 4.17V4.2C4.12667 4.19333 4.42333 4.25333 4.69 4.38C4.96333 4.50667 5.18333 4.69667 5.35 4.95C5.51667 5.20333 5.6 5.51667 5.6 5.89C5.6 6.31667 5.49667 6.69 5.29 7.01C5.09 7.32333 4.80333 7.56667 4.43 7.74C4.05667 7.91333 3.61333 8 3.1 8H0.66ZM2.11 6.79H3.04C3.36667 6.79 3.62333 6.70333 3.81 6.53C3.99667 6.35667 4.09 6.11667 4.09 5.81C4.09 5.50333 3.99667 5.26333 3.81 5.09C3.62333 4.91 3.36667 4.82 3.04 4.82H2.11V6.79ZM2.11 3.64H2.99C3.28333 3.64 3.51333 3.56333 3.68 3.41C3.84667 3.25 3.93 3.03667 3.93 2.77C3.93 2.49667 3.84667 2.28667 3.68 2.14C3.51333 1.98667 3.28333 1.91 2.99 1.91H2.11V3.64ZM9.03609 8.1C8.54943 8.1 8.12276 8.01 7.75609 7.83C7.38943 7.64333 7.10276 7.38667 6.89609 7.06C6.69609 6.72667 6.59609 6.34 6.59609 5.9V2.8C6.59609 2.35333 6.69609 1.96667 6.89609 1.64C7.10276 1.31333 7.38943 1.06 7.75609 0.88C8.12276 0.693333 8.54943 0.6 9.03609 0.6C9.52943 0.6 9.95609 0.693333 10.3161 0.88C10.6828 1.06 10.9661 1.31333 11.1661 1.64C11.3728 1.96667 11.4761 2.35333 11.4761 2.8H9.97609C9.97609 2.50667 9.89276 2.28333 9.72609 2.13C9.56609 1.97667 9.33609 1.9 9.03609 1.9C8.73609 1.9 8.50276 1.97667 8.33609 2.13C8.17609 2.28333 8.09609 2.50667 8.09609 2.8V5.9C8.09609 6.18667 8.17609 6.41 8.33609 6.57C8.50276 6.72333 8.73609 6.8 9.03609 6.8C9.33609 6.8 9.56609 6.72333 9.72609 6.57C9.89276 6.41 9.97609 6.18667 9.97609 5.9V5.27H8.89609V4H11.4761V5.9C11.4761 6.34 11.3728 6.72667 11.1661 7.06C10.9661 7.38667 10.6828 7.64333 10.3161 7.83C9.95609 8.01 9.52943 8.1 9.03609 8.1ZM14.9922 8.1C14.6855 8.1 14.4389 8.01 14.2522 7.83C14.0722 7.64333 13.9822 7.39667 13.9822 7.09C13.9822 6.77667 14.0722 6.53 14.2522 6.35C14.4389 6.17 14.6855 6.08 14.9922 6.08C15.3055 6.08 15.5522 6.17 15.7322 6.35C15.9122 6.53 16.0022 6.77667 16.0022 7.09C16.0022 7.39667 15.9122 7.64333 15.7322 7.83C15.5522 8.01 15.3055 8.1 14.9922 8.1Z"/>
</mask>
<path d="M0.66 8V0.7H3.01C3.75 0.7 4.34 0.87 4.78 1.21C5.22 1.54333 5.44 1.99667 5.44 2.57C5.44 2.89 5.36333 3.17 5.21 3.41C5.06333 3.65 4.86333 3.83667 4.61 3.97C4.36333 4.10333 4.09333 4.17 3.8 4.17V4.2C4.12667 4.19333 4.42333 4.25333 4.69 4.38C4.96333 4.50667 5.18333 4.69667 5.35 4.95C5.51667 5.20333 5.6 5.51667 5.6 5.89C5.6 6.31667 5.49667 6.69 5.29 7.01C5.09 7.32333 4.80333 7.56667 4.43 7.74C4.05667 7.91333 3.61333 8 3.1 8H0.66ZM2.11 6.79H3.04C3.36667 6.79 3.62333 6.70333 3.81 6.53C3.99667 6.35667 4.09 6.11667 4.09 5.81C4.09 5.50333 3.99667 5.26333 3.81 5.09C3.62333 4.91 3.36667 4.82 3.04 4.82H2.11V6.79ZM2.11 3.64H2.99C3.28333 3.64 3.51333 3.56333 3.68 3.41C3.84667 3.25 3.93 3.03667 3.93 2.77C3.93 2.49667 3.84667 2.28667 3.68 2.14C3.51333 1.98667 3.28333 1.91 2.99 1.91H2.11V3.64ZM9.03609 8.1C8.54943 8.1 8.12276 8.01 7.75609 7.83C7.38943 7.64333 7.10276 7.38667 6.89609 7.06C6.69609 6.72667 6.59609 6.34 6.59609 5.9V2.8C6.59609 2.35333 6.69609 1.96667 6.89609 1.64C7.10276 1.31333 7.38943 1.06 7.75609 0.88C8.12276 0.693333 8.54943 0.6 9.03609 0.6C9.52943 0.6 9.95609 0.693333 10.3161 0.88C10.6828 1.06 10.9661 1.31333 11.1661 1.64C11.3728 1.96667 11.4761 2.35333 11.4761 2.8H9.97609C9.97609 2.50667 9.89276 2.28333 9.72609 2.13C9.56609 1.97667 9.33609 1.9 9.03609 1.9C8.73609 1.9 8.50276 1.97667 8.33609 2.13C8.17609 2.28333 8.09609 2.50667 8.09609 2.8V5.9C8.09609 6.18667 8.17609 6.41 8.33609 6.57C8.50276 6.72333 8.73609 6.8 9.03609 6.8C9.33609 6.8 9.56609 6.72333 9.72609 6.57C9.89276 6.41 9.97609 6.18667 9.97609 5.9V5.27H8.89609V4H11.4761V5.9C11.4761 6.34 11.3728 6.72667 11.1661 7.06C10.9661 7.38667 10.6828 7.64333 10.3161 7.83C9.95609 8.01 9.52943 8.1 9.03609 8.1ZM14.9922 8.1C14.6855 8.1 14.4389 8.01 14.2522 7.83C14.0722 7.64333 13.9822 7.39667 13.9822 7.09C13.9822 6.77667 14.0722 6.53 14.2522 6.35C14.4389 6.17 14.6855 6.08 14.9922 6.08C15.3055 6.08 15.5522 6.17 15.7322 6.35C15.9122 6.53 16.0022 6.77667 16.0022 7.09C16.0022 7.39667 15.9122 7.64333 15.7322 7.83C15.5522 8.01 15.3055 8.1 14.9922 8.1Z" fill="#7E2835"/>
<path d="M0.66 8H-0.34V9H0.66V8ZM0.66 0.7V-0.3H-0.34V0.7H0.66ZM4.78 1.21L4.16852 2.00132L4.17614 2.00709L4.78 1.21ZM5.21 3.41L4.3673 2.87161L4.36193 2.88003L4.35672 2.88855L5.21 3.41ZM4.61 3.97L4.14423 3.08503L4.13448 3.09029L4.61 3.97ZM3.8 4.17V3.17H2.8V4.17H3.8ZM3.8 4.2H2.8V5.22062L3.8204 5.19979L3.8 4.2ZM4.69 4.38L4.26092 5.28332L4.26954 5.28731L4.69 4.38ZM5.35 4.95L4.51458 5.49962L4.51458 5.49962L5.35 4.95ZM5.29 7.01L4.44995 6.46747L4.44708 6.47196L5.29 7.01ZM2.11 6.79H1.11V7.79H2.11V6.79ZM3.81 6.53L4.49045 7.26279L4.49045 7.26279L3.81 6.53ZM3.81 5.09L3.11586 5.80984L3.12265 5.81638L3.12955 5.82279L3.81 5.09ZM2.11 4.82V3.82H1.11V4.82H2.11ZM2.11 3.64H1.11V4.64H2.11V3.64ZM3.68 3.41L4.35706 4.14593L4.36487 4.13874L4.37253 4.13139L3.68 3.41ZM3.68 2.14L3.00294 2.87593L3.01108 2.88341L3.01937 2.89071L3.68 2.14ZM2.11 1.91V0.91H1.11V1.91H2.11ZM1.66 8V0.7H-0.34V8H1.66ZM0.66 1.7H3.01V-0.3H0.66V1.7ZM3.01 1.7C3.60171 1.7 3.95378 1.83532 4.16855 2.00128L5.39145 0.418715C4.72622 -0.0953237 3.89829 -0.3 3.01 -0.3V1.7ZM4.17614 2.00709C4.35554 2.143 4.44 2.29557 4.44 2.57H6.44C6.44 1.69776 6.08447 0.943671 5.38386 0.412908L4.17614 2.00709ZM4.44 2.57C4.44 2.72351 4.40557 2.81172 4.3673 2.87161L6.0527 3.94839C6.3211 3.52828 6.44 3.05649 6.44 2.57H4.44ZM4.35672 2.88855C4.30584 2.97181 4.24099 3.03417 4.14425 3.08508L5.07575 4.85492C5.48568 4.63916 5.82083 4.32819 6.06328 3.93145L4.35672 2.88855ZM4.13448 3.09029C4.0407 3.14099 3.93523 3.17 3.8 3.17V5.17C4.25143 5.17 4.68597 5.06568 5.08552 4.84971L4.13448 3.09029ZM2.8 4.17V4.2H4.8V4.17H2.8ZM3.8204 5.19979C4.00859 5.19595 4.149 5.23011 4.26094 5.28328L5.11906 3.47672C4.69767 3.27656 4.24474 3.19072 3.7796 3.20021L3.8204 5.19979ZM4.26954 5.28731C4.37278 5.33515 4.44953 5.40073 4.51458 5.49962L6.18542 4.40038C5.91714 3.9926 5.55389 3.67818 5.11046 3.47269L4.26954 5.28731ZM4.51458 5.49962C4.55139 5.55556 4.6 5.66662 4.6 5.89H6.6C6.6 5.36671 6.48194 4.8511 6.18542 4.40038L4.51458 5.49962ZM4.6 5.89C4.6 6.14806 4.53998 6.3281 4.44996 6.46747L6.13004 7.55252C6.45336 7.0519 6.6 6.48527 6.6 5.89H4.6ZM4.44708 6.47196C4.36046 6.60766 4.22852 6.73102 4.00889 6.83299L4.85111 8.64701C5.37814 8.40232 5.81954 8.03901 6.13292 7.54804L4.44708 6.47196ZM4.00889 6.83299C3.79591 6.93188 3.50284 7 3.1 7V9C3.72382 9 4.31743 8.89479 4.85111 8.64701L4.00889 6.83299ZM3.1 7H0.66V9H3.1V7ZM2.11 7.79H3.04V5.79H2.11V7.79ZM3.04 7.79C3.54527 7.79 4.07103 7.65226 4.49045 7.26279L3.12955 5.79721C3.13665 5.79062 3.14423 5.78512 3.15099 5.78115C3.15759 5.77728 3.16051 5.77657 3.15758 5.77755C3.15103 5.77977 3.11622 5.79 3.04 5.79V7.79ZM4.49045 7.26279C4.92186 6.8622 5.09 6.33339 5.09 5.81H3.09C3.09 5.86248 3.08204 5.87287 3.088 5.85755C3.09096 5.84994 3.09625 5.83894 3.10458 5.82665C3.11293 5.81433 3.12185 5.80436 3.12955 5.79721L4.49045 7.26279ZM5.09 5.81C5.09 5.28661 4.92186 4.7578 4.49045 4.35721L3.12955 5.82279C3.12185 5.81564 3.11293 5.80567 3.10458 5.79335C3.09625 5.78106 3.09096 5.77006 3.088 5.76245C3.08204 5.74713 3.09 5.75751 3.09 5.81H5.09ZM4.50414 4.37016C4.08588 3.96684 3.55513 3.82 3.04 3.82V5.82C3.11264 5.82 3.14354 5.83009 3.1466 5.83117C3.14788 5.83161 3.14387 5.8303 3.13672 5.82595C3.12945 5.82152 3.12213 5.81589 3.11586 5.80984L4.50414 4.37016ZM3.04 3.82H2.11V5.82H3.04V3.82ZM1.11 4.82V6.79H3.11V4.82H1.11ZM2.11 4.64H2.99V2.64H2.11V4.64ZM2.99 4.64C3.45783 4.64 3.95643 4.51451 4.35706 4.14593L3.00294 2.67407C3.01554 2.66248 3.02887 2.65286 3.04152 2.64553C3.05399 2.6383 3.06298 2.63491 3.06627 2.63382C3.07205 2.63189 3.05099 2.64 2.99 2.64V4.64ZM4.37253 4.13139C4.76638 3.7533 4.93 3.26317 4.93 2.77H2.93C2.93 2.79898 2.92562 2.79283 2.93604 2.76615C2.94112 2.75316 2.94853 2.73844 2.95847 2.72359C2.96839 2.70877 2.97868 2.69705 2.98747 2.68861L4.37253 4.13139ZM4.93 2.77C4.93 2.2813 4.77177 1.76869 4.34063 1.38929L3.01937 2.89071C3.00263 2.87598 2.98568 2.85751 2.9705 2.83585C2.95537 2.81425 2.94485 2.79359 2.93801 2.77634C2.92444 2.74214 2.93 2.73383 2.93 2.77H4.93ZM4.35706 1.40407C3.95643 1.03549 3.45783 0.91 2.99 0.91V2.91C3.05099 2.91 3.07205 2.91811 3.06627 2.91618C3.06298 2.91509 3.05399 2.9117 3.04152 2.90447C3.02887 2.89714 3.01554 2.88752 3.00294 2.87593L4.35706 1.40407ZM2.99 0.91H2.11V2.91H2.99V0.91ZM1.11 1.91V3.64H3.11V1.91H1.11ZM7.75609 7.83L7.30241 8.72116L7.30889 8.72446L7.31542 8.72767L7.75609 7.83ZM6.89609 7.06L6.0386 7.5745L6.04469 7.58464L6.05101 7.59464L6.89609 7.06ZM6.89609 1.64L6.05101 1.10536L6.04708 1.11157L6.04324 1.11785L6.89609 1.64ZM7.75609 0.88L8.19677 1.77767L8.2033 1.77446L8.20978 1.77116L7.75609 0.88ZM10.3161 0.88L9.85578 1.76775L9.86554 1.77282L9.87542 1.77767L10.3161 0.88ZM11.1661 1.64L10.3132 2.16215L10.3171 2.16843L10.321 2.17464L11.1661 1.64ZM11.4761 2.8V3.8H12.4761V2.8H11.4761ZM9.97609 2.8H8.97609V3.8H9.97609V2.8ZM9.72609 2.13L9.03419 2.85199L9.04154 2.85904L9.04904 2.86593L9.72609 2.13ZM8.33609 2.13L7.65904 1.39407L7.65154 1.40096L7.64419 1.40801L8.33609 2.13ZM8.33609 6.57L7.62899 7.27711L7.64371 7.29183L7.65904 7.30593L8.33609 6.57ZM9.72609 6.57L10.418 7.29199L10.4186 7.29139L9.72609 6.57ZM9.97609 5.27H10.9761V4.27H9.97609V5.27ZM8.89609 5.27H7.89609V6.27H8.89609V5.27ZM8.89609 4V3H7.89609V4H8.89609ZM11.4761 4H12.4761V3H11.4761V4ZM11.1661 7.06L10.3162 6.53305L10.3132 6.53785L11.1661 7.06ZM10.3161 7.83L10.7633 8.72445L10.7698 8.72116L10.3161 7.83ZM9.03609 7.1C8.67323 7.1 8.40245 7.03331 8.19677 6.93233L7.31542 8.72767C7.84307 8.98669 8.42562 9.1 9.03609 9.1V7.1ZM8.20978 6.93884C7.99252 6.82823 7.84554 6.69033 7.74117 6.52536L6.05101 7.59464C6.35998 8.083 6.78633 8.45843 7.30241 8.72116L8.20978 6.93884ZM7.75359 6.5455C7.65865 6.38728 7.59609 6.18319 7.59609 5.9H5.59609C5.59609 6.49681 5.73353 7.06605 6.0386 7.5745L7.75359 6.5455ZM7.59609 5.9V2.8H5.59609V5.9H7.59609ZM7.59609 2.8C7.59609 2.50653 7.6602 2.3071 7.74895 2.16215L6.04324 1.11785C5.73199 1.62623 5.59609 2.20013 5.59609 2.8H7.59609ZM7.74117 2.17464C7.84345 2.01298 7.98602 1.88113 8.19677 1.77767L7.31542 -0.0176681C6.79284 0.238872 6.36207 0.613685 6.05101 1.10536L7.74117 2.17464ZM8.20978 1.77116C8.41239 1.66801 8.67842 1.6 9.03609 1.6V-0.4C8.42043 -0.4 7.83313 -0.281346 7.30241 -0.0111632L8.20978 1.77116ZM9.03609 1.6C9.40349 1.6 9.66561 1.66915 9.85578 1.76775L10.7764 -0.00775464C10.2466 -0.282482 9.65536 -0.4 9.03609 -0.4V1.6ZM9.87542 1.77767C10.0837 1.87991 10.2189 2.00807 10.3132 2.16215L12.0189 1.11785C11.7133 0.618591 11.2818 0.240093 10.7568 -0.0176681L9.87542 1.77767ZM10.321 2.17464C10.4115 2.31771 10.4761 2.51256 10.4761 2.8H12.4761C12.4761 2.19411 12.334 1.61562 12.0112 1.10536L10.321 2.17464ZM11.4761 1.8H9.97609V3.8H11.4761V1.8ZM10.9761 2.8C10.9761 2.31432 10.8321 1.78875 10.4032 1.39407L9.04904 2.86593C9.03161 2.84989 9.01561 2.8312 9.00229 2.81112C8.98908 2.79122 8.9811 2.77391 8.97669 2.76209C8.96825 2.73947 8.97609 2.74612 8.97609 2.8H10.9761ZM10.418 1.40801C10.014 1.02084 9.50083 0.9 9.03609 0.9V2.9C9.1031 2.9 9.12522 2.9088 9.11737 2.90618C9.11274 2.90464 9.10102 2.9002 9.08498 2.89074C9.06869 2.88113 9.0511 2.8682 9.03419 2.85199L10.418 1.40801ZM9.03609 0.9C8.56855 0.9 8.06358 1.02189 7.65904 1.39407L9.01315 2.86593C8.99931 2.87867 8.98505 2.88881 8.97207 2.89628C8.95929 2.90363 8.95054 2.90678 8.94825 2.90753C8.94472 2.90869 8.96952 2.9 9.03609 2.9V0.9ZM7.64419 1.40801C7.2296 1.80533 7.09609 2.32607 7.09609 2.8H9.09609C9.09609 2.74211 9.10422 2.73103 9.09752 2.74973C9.09394 2.75971 9.0869 2.77594 9.07445 2.79548C9.06185 2.81525 9.04612 2.83462 9.028 2.85199L7.64419 1.40801ZM7.09609 2.8V5.9H9.09609V2.8H7.09609ZM7.09609 5.9C7.09609 6.37745 7.23467 6.88279 7.62899 7.27711L9.0432 5.86289C9.0565 5.87619 9.06863 5.89142 9.07868 5.90746C9.08864 5.92337 9.09446 5.93675 9.09752 5.94527C9.1034 5.96171 9.09609 5.95162 9.09609 5.9H7.09609ZM7.65904 7.30593C8.06358 7.67811 8.56855 7.8 9.03609 7.8V5.8C8.96952 5.8 8.94472 5.79131 8.94825 5.79247C8.95054 5.79322 8.95929 5.79637 8.97207 5.80372C8.98505 5.81119 8.99931 5.82133 9.01315 5.83407L7.65904 7.30593ZM9.03609 7.8C9.50083 7.8 10.014 7.67916 10.418 7.29199L9.03419 5.84801C9.0511 5.8318 9.06869 5.81887 9.08498 5.80926C9.10102 5.7998 9.11274 5.79536 9.11737 5.79382C9.12522 5.7912 9.1031 5.8 9.03609 5.8V7.8ZM10.4186 7.29139C10.827 6.89936 10.9761 6.38909 10.9761 5.9H8.97609C8.97609 5.94749 8.96913 5.95317 8.97669 5.93291C8.98054 5.9226 8.98723 5.90816 8.99786 5.89186C9.00855 5.87546 9.0209 5.86077 9.03356 5.84861L10.4186 7.29139ZM10.9761 5.9V5.27H8.97609V5.9H10.9761ZM9.97609 4.27H8.89609V6.27H9.97609V4.27ZM9.89609 5.27V4H7.89609V5.27H9.89609ZM8.89609 5H11.4761V3H8.89609V5ZM10.4761 4V5.9H12.4761V4H10.4761ZM10.4761 5.9C10.4761 6.17713 10.4131 6.3767 10.3162 6.53306L12.016 7.58694C12.3324 7.07664 12.4761 6.50287 12.4761 5.9H10.4761ZM10.3132 6.53785C10.2168 6.69529 10.0772 6.82949 9.86241 6.93884L10.7698 8.72116C11.2883 8.45718 11.7153 8.07805 12.0189 7.58215L10.3132 6.53785ZM9.86888 6.93557C9.67557 7.03223 9.40863 7.1 9.03609 7.1V9.1C9.65022 9.1 10.2366 8.98777 10.7633 8.72443L9.86888 6.93557ZM14.2522 7.83L13.5323 8.52414L13.545 8.53722L13.5581 8.54984L14.2522 7.83ZM14.2522 6.35L13.5581 5.63016L13.5515 5.63647L13.5451 5.64289L14.2522 6.35ZM15.7322 7.83L16.4393 8.53711L16.4457 8.53068L16.452 8.52414L15.7322 7.83ZM14.9922 7.1C14.9365 7.1 14.9167 7.0919 14.9199 7.09308C14.9214 7.09361 14.9261 7.09553 14.9323 7.09939C14.9385 7.10328 14.9434 7.10729 14.9463 7.11016L13.5581 8.54984C13.9646 8.94184 14.4772 9.1 14.9922 9.1V7.1ZM14.972 7.13586C14.9749 7.13883 14.9789 7.14369 14.9828 7.14993C14.9867 7.15613 14.9886 7.16077 14.9891 7.16224C14.9903 7.16548 14.9822 7.14567 14.9822 7.09H12.9822C12.9822 7.60504 13.1403 8.11762 13.5323 8.52414L14.972 7.13586ZM14.9822 7.09C14.9822 7.02823 14.9911 7.00732 14.9891 7.01276C14.9881 7.01559 14.9851 7.02277 14.9791 7.03224C14.973 7.04179 14.966 7.05035 14.9593 7.05711L13.5451 5.64289C13.1361 6.05188 12.9822 6.57646 12.9822 7.09H14.9822ZM14.9463 7.06984C14.9434 7.07271 14.9385 7.07672 14.9323 7.08061C14.9261 7.08447 14.9214 7.08639 14.9199 7.08692C14.9167 7.0881 14.9365 7.08 14.9922 7.08V5.08C14.4772 5.08 13.9646 5.23816 13.5581 5.63016L14.9463 7.06984ZM14.9922 7.08C15.054 7.08 15.0749 7.08891 15.0694 7.08692C15.0666 7.08589 15.0594 7.08289 15.0499 7.07689C15.0404 7.07085 15.0318 7.06386 15.0251 7.05711L16.4393 5.64289C16.0303 5.23391 15.5057 5.08 14.9922 5.08V7.08ZM15.0251 7.05711C15.0183 7.05035 15.0113 7.04179 15.0053 7.03224C14.9993 7.02277 14.9963 7.01559 14.9953 7.01276C14.9933 7.00732 15.0022 7.02823 15.0022 7.09H17.0022C17.0022 6.57646 16.8483 6.05188 16.4393 5.64289L15.0251 7.05711ZM15.0022 7.09C15.0022 7.14567 14.9941 7.16548 14.9953 7.16224C14.9958 7.16077 14.9977 7.15613 15.0016 7.14993C15.0055 7.14369 15.0095 7.13883 15.0123 7.13586L16.452 8.52414C16.844 8.11762 17.0022 7.60504 17.0022 7.09H15.0022ZM15.0251 7.12289C15.0318 7.11614 15.0404 7.10915 15.0499 7.10311C15.0594 7.09711 15.0666 7.09411 15.0694 7.09308C15.0749 7.09109 15.054 7.1 14.9922 7.1V9.1C15.5057 9.1 16.0303 8.94609 16.4393 8.53711L15.0251 7.12289Z" fill="white" mask="url(#path-1-outside-1_23_5)"/>
</svg>
