<svg width="91" height="17" viewBox="0 0 91 17" fill="none" xmlns="http://www.w3.org/2000/svg">
<mask id="path-1-outside-1_16_2" maskUnits="userSpaceOnUse" x="-1" y="-1" width="93" height="18" fill="black">
<rect fill="white" x="-1" y="-1" width="93" height="18"/>
<path d="M0.32 16V1.4H5.02C6.5 1.4 7.68 1.74 8.56 2.42C9.44 3.08667 9.88 3.99333 9.88 5.14C9.88 5.78 9.72667 6.34 9.42 6.82C9.12667 7.3 8.72667 7.67333 8.22 7.94C7.72667 8.20667 7.18667 8.34 6.6 8.34V8.4C7.25333 8.38667 7.84667 8.50667 8.38 8.76C8.92667 9.01333 9.36667 9.39333 9.7 9.9C10.0333 10.4067 10.2 11.0333 10.2 11.78C10.2 12.6333 9.99333 13.38 9.58 14.02C9.18 14.6467 8.60667 15.1333 7.86 15.48C7.11333 15.8267 6.22667 16 5.2 16H0.32ZM3.22 13.58H5.08C5.73333 13.58 6.24667 13.4067 6.62 13.06C6.99333 12.7133 7.18 12.2333 7.18 11.62C7.18 11.0067 6.99333 10.5267 6.62 10.18C6.24667 9.82 5.73333 9.64 5.08 9.64H3.22V13.58ZM3.22 7.28H4.98C5.56667 7.28 6.02667 7.12667 6.36 6.82C6.69333 6.5 6.86 6.07333 6.86 5.54C6.86 4.99333 6.69333 4.57333 6.36 4.28C6.02667 3.97333 5.56667 3.82 4.98 3.82H3.22V7.28ZM15.5722 16.2C14.4655 16.2 13.5855 15.9 12.9322 15.3C12.2922 14.7 11.9722 13.8867 11.9722 12.86C11.9722 11.7533 12.3522 10.9067 13.1122 10.32C13.8855 9.72 14.9922 9.42 16.4322 9.42H18.7122V8.6C18.7122 8.17333 18.5589 7.83333 18.2522 7.58C17.9589 7.32667 17.5589 7.2 17.0522 7.2C16.5855 7.2 16.1989 7.30667 15.8922 7.52C15.5855 7.73333 15.3989 8.02667 15.3322 8.4H12.4322C12.5522 7.29333 13.0322 6.42 13.8722 5.78C14.7255 5.12667 15.8189 4.8 17.1522 4.8C18.5522 4.8 19.6589 5.14667 20.4722 5.84C21.2989 6.52 21.7122 7.44 21.7122 8.6V16H18.8122V14.2H18.3322L18.8322 13.5C18.8322 14.3267 18.5322 14.9867 17.9322 15.48C17.3455 15.96 16.5589 16.2 15.5722 16.2ZM16.6922 14C17.2789 14 17.7589 13.8467 18.1322 13.54C18.5189 13.22 18.7122 12.8067 18.7122 12.3V11.12H16.4922C16.0389 11.12 15.6722 11.2533 15.3922 11.52C15.1122 11.7733 14.9722 12.1133 14.9722 12.54C14.9722 12.9933 15.1255 13.3533 15.4322 13.62C15.7389 13.8733 16.1589 14 16.6922 14ZM24.3844 16V13.28H28.1844V7.7H24.8844V5H30.9844V13.28H34.1844V16H24.3844ZM29.3844 3.26C28.8377 3.26 28.3977 3.12 28.0644 2.84C27.7444 2.56 27.5844 2.18 27.5844 1.7C27.5844 1.22 27.7444 0.839999 28.0644 0.56C28.3977 0.279999 28.8377 0.139999 29.3844 0.139999C29.931 0.139999 30.3644 0.279999 30.6844 0.56C31.0177 0.839999 31.1844 1.22 31.1844 1.7C31.1844 2.18 31.0177 2.56 30.6844 2.84C30.3644 3.12 29.931 3.26 29.3844 3.26ZM42.7766 16C42.0032 16 41.3232 15.84 40.7366 15.52C40.1499 15.1867 39.6899 14.7267 39.3566 14.14C39.0366 13.5533 38.8766 12.8733 38.8766 12.1V4.1H35.4766V1.4H41.8766V12.1C41.8766 12.46 41.9832 12.7533 42.1966 12.98C42.4232 13.1933 42.7166 13.3 43.0766 13.3H46.2766V16H42.7766ZM53.0488 16.2C52.0754 16.2 51.2221 16.02 50.4888 15.66C49.7554 15.2867 49.1821 14.7733 48.7688 14.12C48.3688 13.4533 48.1688 12.68 48.1688 11.8V5.6C48.1688 4.70667 48.3688 3.93333 48.7688 3.28C49.1821 2.62667 49.7554 2.12 50.4888 1.76C51.2221 1.38667 52.0754 1.2 53.0488 1.2C54.0354 1.2 54.8888 1.38667 55.6088 1.76C56.3421 2.12 56.9088 2.62667 57.3088 3.28C57.7221 3.93333 57.9288 4.70667 57.9288 5.6H54.9288C54.9288 5.01333 54.7621 4.56667 54.4288 4.26C54.1088 3.95333 53.6488 3.8 53.0488 3.8C52.4488 3.8 51.9821 3.95333 51.6488 4.26C51.3288 4.56667 51.1688 5.01333 51.1688 5.6V11.8C51.1688 12.3733 51.3288 12.82 51.6488 13.14C51.9821 13.4467 52.4488 13.6 53.0488 13.6C53.6488 13.6 54.1088 13.4467 54.4288 13.14C54.7621 12.82 54.9288 12.3733 54.9288 11.8V10.54H52.7688V8H57.9288V11.8C57.9288 12.68 57.7221 13.4533 57.3088 14.12C56.9088 14.7733 56.3421 15.2867 55.6088 15.66C54.8888 16.02 54.0354 16.2 53.0488 16.2ZM64.9609 16.2C63.4809 16.2 62.3209 15.8 61.4809 15C60.6543 14.2 60.2409 13.1067 60.2409 11.72V5H63.2409V11.7C63.2409 12.3133 63.3876 12.7867 63.6809 13.12C63.9743 13.44 64.4009 13.6 64.9609 13.6C65.5076 13.6 65.9276 13.44 66.2209 13.12C66.5276 12.7867 66.6809 12.3133 66.6809 11.7V5H69.6809V11.72C69.6809 13.12 69.2609 14.22 68.4209 15.02C67.5809 15.8067 66.4276 16.2 64.9609 16.2ZM72.3531 16V13.28H76.1531V7.7H72.8531V5H78.9531V13.28H82.1531V16H72.3531ZM77.3531 3.26C76.8065 3.26 76.3665 3.12 76.0331 2.84C75.7131 2.56 75.5531 2.18 75.5531 1.7C75.5531 1.22 75.7131 0.839999 76.0331 0.56C76.3665 0.279999 76.8065 0.139999 77.3531 0.139999C77.8998 0.139999 78.3331 0.279999 78.6531 0.56C78.9865 0.839999 79.1531 1.22 79.1531 1.7C79.1531 2.18 78.9865 2.56 78.6531 2.84C78.3331 3.12 77.8998 3.26 77.3531 3.26ZM88.9453 16.2C88.332 16.2 87.8386 16.02 87.4653 15.66C87.1053 15.2867 86.9253 14.7933 86.9253 14.18C86.9253 13.5533 87.1053 13.06 87.4653 12.7C87.8386 12.34 88.332 12.16 88.9453 12.16C89.572 12.16 90.0653 12.34 90.4253 12.7C90.7853 13.06 90.9653 13.5533 90.9653 14.18C90.9653 14.7933 90.7853 15.2867 90.4253 15.66C90.0653 16.02 89.572 16.2 88.9453 16.2Z"/>
</mask>
<path d="M0.32 16V1.4H5.02C6.5 1.4 7.68 1.74 8.56 2.42C9.44 3.08667 9.88 3.99333 9.88 5.14C9.88 5.78 9.72667 6.34 9.42 6.82C9.12667 7.3 8.72667 7.67333 8.22 7.94C7.72667 8.20667 7.18667 8.34 6.6 8.34V8.4C7.25333 8.38667 7.84667 8.50667 8.38 8.76C8.92667 9.01333 9.36667 9.39333 9.7 9.9C10.0333 10.4067 10.2 11.0333 10.2 11.78C10.2 12.6333 9.99333 13.38 9.58 14.02C9.18 14.6467 8.60667 15.1333 7.86 15.48C7.11333 15.8267 6.22667 16 5.2 16H0.32ZM3.22 13.58H5.08C5.73333 13.58 6.24667 13.4067 6.62 13.06C6.99333 12.7133 7.18 12.2333 7.18 11.62C7.18 11.0067 6.99333 10.5267 6.62 10.18C6.24667 9.82 5.73333 9.64 5.08 9.64H3.22V13.58ZM3.22 7.28H4.98C5.56667 7.28 6.02667 7.12667 6.36 6.82C6.69333 6.5 6.86 6.07333 6.86 5.54C6.86 4.99333 6.69333 4.57333 6.36 4.28C6.02667 3.97333 5.56667 3.82 4.98 3.82H3.22V7.28ZM15.5722 16.2C14.4655 16.2 13.5855 15.9 12.9322 15.3C12.2922 14.7 11.9722 13.8867 11.9722 12.86C11.9722 11.7533 12.3522 10.9067 13.1122 10.32C13.8855 9.72 14.9922 9.42 16.4322 9.42H18.7122V8.6C18.7122 8.17333 18.5589 7.83333 18.2522 7.58C17.9589 7.32667 17.5589 7.2 17.0522 7.2C16.5855 7.2 16.1989 7.30667 15.8922 7.52C15.5855 7.73333 15.3989 8.02667 15.3322 8.4H12.4322C12.5522 7.29333 13.0322 6.42 13.8722 5.78C14.7255 5.12667 15.8189 4.8 17.1522 4.8C18.5522 4.8 19.6589 5.14667 20.4722 5.84C21.2989 6.52 21.7122 7.44 21.7122 8.6V16H18.8122V14.2H18.3322L18.8322 13.5C18.8322 14.3267 18.5322 14.9867 17.9322 15.48C17.3455 15.96 16.5589 16.2 15.5722 16.2ZM16.6922 14C17.2789 14 17.7589 13.8467 18.1322 13.54C18.5189 13.22 18.7122 12.8067 18.7122 12.3V11.12H16.4922C16.0389 11.12 15.6722 11.2533 15.3922 11.52C15.1122 11.7733 14.9722 12.1133 14.9722 12.54C14.9722 12.9933 15.1255 13.3533 15.4322 13.62C15.7389 13.8733 16.1589 14 16.6922 14ZM24.3844 16V13.28H28.1844V7.7H24.8844V5H30.9844V13.28H34.1844V16H24.3844ZM29.3844 3.26C28.8377 3.26 28.3977 3.12 28.0644 2.84C27.7444 2.56 27.5844 2.18 27.5844 1.7C27.5844 1.22 27.7444 0.839999 28.0644 0.56C28.3977 0.279999 28.8377 0.139999 29.3844 0.139999C29.931 0.139999 30.3644 0.279999 30.6844 0.56C31.0177 0.839999 31.1844 1.22 31.1844 1.7C31.1844 2.18 31.0177 2.56 30.6844 2.84C30.3644 3.12 29.931 3.26 29.3844 3.26ZM42.7766 16C42.0032 16 41.3232 15.84 40.7366 15.52C40.1499 15.1867 39.6899 14.7267 39.3566 14.14C39.0366 13.5533 38.8766 12.8733 38.8766 12.1V4.1H35.4766V1.4H41.8766V12.1C41.8766 12.46 41.9832 12.7533 42.1966 12.98C42.4232 13.1933 42.7166 13.3 43.0766 13.3H46.2766V16H42.7766ZM53.0488 16.2C52.0754 16.2 51.2221 16.02 50.4888 15.66C49.7554 15.2867 49.1821 14.7733 48.7688 14.12C48.3688 13.4533 48.1688 12.68 48.1688 11.8V5.6C48.1688 4.70667 48.3688 3.93333 48.7688 3.28C49.1821 2.62667 49.7554 2.12 50.4888 1.76C51.2221 1.38667 52.0754 1.2 53.0488 1.2C54.0354 1.2 54.8888 1.38667 55.6088 1.76C56.3421 2.12 56.9088 2.62667 57.3088 3.28C57.7221 3.93333 57.9288 4.70667 57.9288 5.6H54.9288C54.9288 5.01333 54.7621 4.56667 54.4288 4.26C54.1088 3.95333 53.6488 3.8 53.0488 3.8C52.4488 3.8 51.9821 3.95333 51.6488 4.26C51.3288 4.56667 51.1688 5.01333 51.1688 5.6V11.8C51.1688 12.3733 51.3288 12.82 51.6488 13.14C51.9821 13.4467 52.4488 13.6 53.0488 13.6C53.6488 13.6 54.1088 13.4467 54.4288 13.14C54.7621 12.82 54.9288 12.3733 54.9288 11.8V10.54H52.7688V8H57.9288V11.8C57.9288 12.68 57.7221 13.4533 57.3088 14.12C56.9088 14.7733 56.3421 15.2867 55.6088 15.66C54.8888 16.02 54.0354 16.2 53.0488 16.2ZM64.9609 16.2C63.4809 16.2 62.3209 15.8 61.4809 15C60.6543 14.2 60.2409 13.1067 60.2409 11.72V5H63.2409V11.7C63.2409 12.3133 63.3876 12.7867 63.6809 13.12C63.9743 13.44 64.4009 13.6 64.9609 13.6C65.5076 13.6 65.9276 13.44 66.2209 13.12C66.5276 12.7867 66.6809 12.3133 66.6809 11.7V5H69.6809V11.72C69.6809 13.12 69.2609 14.22 68.4209 15.02C67.5809 15.8067 66.4276 16.2 64.9609 16.2ZM72.3531 16V13.28H76.1531V7.7H72.8531V5H78.9531V13.28H82.1531V16H72.3531ZM77.3531 3.26C76.8065 3.26 76.3665 3.12 76.0331 2.84C75.7131 2.56 75.5531 2.18 75.5531 1.7C75.5531 1.22 75.7131 0.839999 76.0331 0.56C76.3665 0.279999 76.8065 0.139999 77.3531 0.139999C77.8998 0.139999 78.3331 0.279999 78.6531 0.56C78.9865 0.839999 79.1531 1.22 79.1531 1.7C79.1531 2.18 78.9865 2.56 78.6531 2.84C78.3331 3.12 77.8998 3.26 77.3531 3.26ZM88.9453 16.2C88.332 16.2 87.8386 16.02 87.4653 15.66C87.1053 15.2867 86.9253 14.7933 86.9253 14.18C86.9253 13.5533 87.1053 13.06 87.4653 12.7C87.8386 12.34 88.332 12.16 88.9453 12.16C89.572 12.16 90.0653 12.34 90.4253 12.7C90.7853 13.06 90.9653 13.5533 90.9653 14.18C90.9653 14.7933 90.7853 15.2867 90.4253 15.66C90.0653 16.02 89.572 16.2 88.9453 16.2Z" fill="#7E2835"/>
<path d="M0.32 16H-0.18V16.5H0.32V16ZM0.32 1.4V0.9H-0.18V1.4H0.32ZM8.56 2.42L8.25426 2.81566L8.25807 2.81855L8.56 2.42ZM9.42 6.82L8.99857 6.55075L8.99336 6.55927L9.42 6.82ZM8.22 7.94L7.98711 7.49751L7.98224 7.50015L8.22 7.94ZM6.6 8.34V7.84H6.1V8.34H6.6ZM6.6 8.4H6.1V8.91031L6.6102 8.8999L6.6 8.4ZM8.38 8.76L8.16546 9.21166L8.16977 9.21366L8.38 8.76ZM9.7 9.9L9.28229 10.1748L9.28229 10.1748L9.7 9.9ZM9.58 14.02L9.15998 13.7487L9.15854 13.751L9.58 14.02ZM3.22 13.58H2.72V14.08H3.22V13.58ZM6.62 13.06L6.96023 13.4264L6.96023 13.4264L6.62 13.06ZM6.62 10.18L6.27287 10.54L6.27977 10.5464L6.62 10.18ZM3.22 9.64V9.14H2.72V9.64H3.22ZM3.22 7.28H2.72V7.78H3.22V7.28ZM6.36 6.82L6.69861 7.18805L6.70627 7.18069L6.36 6.82ZM6.36 4.28L6.02139 4.64805L6.02969 4.65536L6.36 4.28ZM3.22 3.82V3.32H2.72V3.82H3.22ZM0.82 16V1.4H-0.18V16H0.82ZM0.32 1.9H5.02V0.9H0.32V1.9ZM5.02 1.9C6.42586 1.9 7.48689 2.22266 8.25428 2.81564L8.86572 2.02436C7.87311 1.25734 6.57414 0.9 5.02 0.9V1.9ZM8.25807 2.81855C9.00777 3.3865 9.38 4.14278 9.38 5.14H10.38C10.38 3.84388 9.87223 2.78684 8.86193 2.02145L8.25807 2.81855ZM9.38 5.14C9.38 5.69675 9.24779 6.16086 8.99865 6.5508L9.84135 7.08919C10.2055 6.51914 10.38 5.86324 10.38 5.14H9.38ZM8.99336 6.55927C8.74792 6.9609 8.41549 7.27208 7.98713 7.49754L8.45287 8.38246C9.03784 8.07458 9.50541 7.6391 9.84664 7.08072L8.99336 6.55927ZM7.98224 7.50015C7.56535 7.72549 7.10762 7.84 6.6 7.84V8.84C7.26572 8.84 7.88798 8.68784 8.45776 8.37985L7.98224 7.50015ZM6.1 8.34V8.4H7.1V8.34H6.1ZM6.6102 8.8999C7.1943 8.88798 7.7095 8.99505 8.16547 9.21164L8.59453 8.30836C7.98383 8.01828 7.31237 7.88536 6.5898 7.9001L6.6102 8.8999ZM8.16977 9.21366C8.63139 9.42758 8.99976 9.74537 9.28229 10.1748L10.1177 9.62519C9.73357 9.0413 9.22194 8.59909 8.59023 8.30634L8.16977 9.21366ZM9.28229 10.1748C9.5507 10.5828 9.7 11.1083 9.7 11.78H10.7C10.7 10.9584 10.516 10.2306 10.1177 9.62519L9.28229 10.1748ZM9.7 11.78C9.7 12.549 9.51499 13.199 9.15998 13.7487L10 14.2913C10.4717 13.561 10.7 12.7176 10.7 11.78H9.7ZM9.15854 13.751C8.81523 14.2888 8.31926 14.7155 7.64944 15.0265L8.07056 15.9335C8.89407 15.5512 9.54477 15.0045 10.0015 14.289L9.15854 13.751ZM7.64944 15.0265C6.98295 15.3359 6.17142 15.5 5.2 15.5V16.5C6.28191 16.5 7.24371 16.3174 8.07056 15.9335L7.64944 15.0265ZM5.2 15.5H0.32V16.5H5.2V15.5ZM3.22 14.08H5.08V13.08H3.22V14.08ZM5.08 14.08C5.82263 14.08 6.47051 13.8811 6.96023 13.4264L6.27977 12.6936C6.02282 12.9322 5.64403 13.08 5.08 13.08V14.08ZM6.96023 13.4264C7.45593 12.9661 7.68 12.3417 7.68 11.62H6.68C6.68 12.125 6.53074 12.4606 6.27977 12.6936L6.96023 13.4264ZM7.68 11.62C7.68 10.8983 7.45593 10.2739 6.96023 9.8136L6.27977 10.5464C6.53074 10.7794 6.68 11.115 6.68 11.62H7.68ZM6.96707 9.82008C6.47794 9.34842 5.82757 9.14 5.08 9.14V10.14C5.6391 10.14 6.01539 10.2916 6.27293 10.5399L6.96707 9.82008ZM5.08 9.14H3.22V10.14H5.08V9.14ZM2.72 9.64V13.58H3.72V9.64H2.72ZM3.22 7.78H4.98V6.78H3.22V7.78ZM4.98 7.78C5.65392 7.78 6.24821 7.60226 6.69853 7.18797L6.02147 6.45203C5.80512 6.65108 5.47942 6.78 4.98 6.78V7.78ZM6.70627 7.18069C7.15319 6.75165 7.36 6.18659 7.36 5.54H6.36C6.36 5.96008 6.23348 6.24835 6.01373 6.45931L6.70627 7.18069ZM7.36 5.54C7.36 4.88565 7.15588 4.31434 6.69031 3.90464L6.02969 4.65536C6.23078 4.83232 6.36 5.10102 6.36 5.54H7.36ZM6.69853 3.91203C6.24821 3.49774 5.65392 3.32 4.98 3.32V4.32C5.47942 4.32 5.80512 4.44892 6.02147 4.64797L6.69853 3.91203ZM4.98 3.32H3.22V4.32H4.98V3.32ZM2.72 3.82V7.28H3.72V3.82H2.72ZM12.9322 15.3L12.5902 15.6648L12.594 15.6683L12.9322 15.3ZM13.1122 10.32L13.4177 10.7158L13.4187 10.715L13.1122 10.32ZM18.7122 9.42V9.92H19.2122V9.42H18.7122ZM18.2522 7.58L17.9253 7.9585L17.9337 7.96548L18.2522 7.58ZM15.8922 7.52L15.6067 7.10955L15.6067 7.10955L15.8922 7.52ZM15.3322 8.4V8.9H15.7508L15.8244 8.48789L15.3322 8.4ZM12.4322 8.4L11.9351 8.3461L11.875 8.9H12.4322V8.4ZM13.8722 5.78L14.1752 6.17772L14.1761 6.177L13.8722 5.78ZM20.4722 5.84L20.1478 6.22057L20.1546 6.22614L20.4722 5.84ZM21.7122 16V16.5H22.2122V16H21.7122ZM18.8122 16H18.3122V16.5H18.8122V16ZM18.8122 14.2H19.3122V13.7H18.8122V14.2ZM18.3322 14.2L17.9253 13.9094L17.3606 14.7H18.3322V14.2ZM18.8322 13.5H19.3322V11.9398L18.4253 13.2094L18.8322 13.5ZM17.9322 15.48L18.2488 15.867L18.2497 15.8662L17.9322 15.48ZM18.1322 13.54L18.4496 13.9264L18.451 13.9252L18.1322 13.54ZM18.7122 11.12H19.2122V10.62H18.7122V11.12ZM15.3922 11.52L15.7278 11.8909L15.737 11.8821L15.3922 11.52ZM15.4322 13.62L15.104 13.9974L15.1137 14.0055L15.4322 13.62ZM15.5722 15.7C14.5584 15.7 13.8101 15.4274 13.2704 14.9317L12.594 15.6683C13.3609 16.3726 14.3726 16.7 15.5722 16.7V15.7ZM13.2742 14.9352C12.7523 14.446 12.4722 13.7741 12.4722 12.86H11.4722C11.4722 13.9992 11.8321 14.954 12.5902 15.6648L13.2742 14.9352ZM12.4722 12.86C12.4722 11.8815 12.8001 11.1925 13.4177 10.7158L12.8067 9.9242C11.9043 10.6208 11.4722 11.6252 11.4722 12.86H12.4722ZM13.4187 10.715C14.0715 10.2085 15.0529 9.92 16.4322 9.92V8.92C14.9315 8.92 13.6995 9.23146 12.8057 9.92496L13.4187 10.715ZM16.4322 9.92H18.7122V8.92H16.4322V9.92ZM19.2122 9.42V8.6H18.2122V9.42H19.2122ZM19.2122 8.6C19.2122 8.03657 19.0015 7.55045 18.5706 7.19452L17.9337 7.96548C18.1162 8.11622 18.2122 8.3101 18.2122 8.6H19.2122ZM18.579 7.20159C18.17 6.84835 17.6413 6.7 17.0522 6.7V7.7C17.4764 7.7 17.7477 7.80499 17.9254 7.95841L18.579 7.20159ZM17.0522 6.7C16.509 6.7 16.0159 6.82483 15.6067 7.10955L16.1777 7.93045C16.3818 7.78851 16.662 7.7 17.0522 7.7V6.7ZM15.6067 7.10955C15.1892 7.39998 14.9296 7.8103 14.84 8.3121L15.8244 8.48789C15.8681 8.24303 15.9819 8.06669 16.1777 7.93045L15.6067 7.10955ZM15.3322 7.9H12.4322V8.9H15.3322V7.9ZM12.9293 8.4539C13.0354 7.47534 13.4508 6.72967 14.1752 6.17772L13.5692 5.38228C12.6136 6.11033 12.069 7.11133 11.9351 8.3461L12.9293 8.4539ZM14.1761 6.177C14.923 5.6052 15.9018 5.3 17.1522 5.3V4.3C15.7359 4.3 14.528 4.64814 13.5682 5.383L14.1761 6.177ZM17.1522 5.3C18.4707 5.3 19.4499 5.62553 20.1478 6.22051L20.7966 5.45949C19.8678 4.6678 18.6337 4.3 17.1522 4.3V5.3ZM20.1546 6.22614C20.8552 6.80246 21.2122 7.57524 21.2122 8.6H22.2122C22.2122 7.30476 21.7425 6.23754 20.7898 5.45385L20.1546 6.22614ZM21.2122 8.6V16H22.2122V8.6H21.2122ZM21.7122 15.5H18.8122V16.5H21.7122V15.5ZM19.3122 16V14.2H18.3122V16H19.3122ZM18.8122 13.7H18.3322V14.7H18.8122V13.7ZM18.7391 14.4906L19.2391 13.7906L18.4253 13.2094L17.9253 13.9094L18.7391 14.4906ZM18.3322 13.5C18.3322 14.1881 18.0909 14.7022 17.6146 15.0938L18.2497 15.8662C18.9735 15.2711 19.3322 14.4652 19.3322 13.5H18.3322ZM17.6156 15.093C17.1422 15.4804 16.4787 15.7 15.5722 15.7V16.7C16.639 16.7 17.5489 16.4396 18.2488 15.867L17.6156 15.093ZM16.6922 14.5C17.3689 14.5 17.9687 14.3213 18.4496 13.9264L17.8148 13.1536C17.549 13.372 17.1888 13.5 16.6922 13.5V14.5ZM18.451 13.9252C18.9537 13.5092 19.2122 12.954 19.2122 12.3H18.2122C18.2122 12.6593 18.084 12.9308 17.8134 13.1548L18.451 13.9252ZM19.2122 12.3V11.12H18.2122V12.3H19.2122ZM18.7122 10.62H16.4922V11.62H18.7122V10.62ZM16.4922 10.62C15.9342 10.62 15.4362 10.7876 15.0474 11.1579L15.737 11.8821C15.9082 11.719 16.1436 11.62 16.4922 11.62V10.62ZM15.0567 11.1492C14.6578 11.5102 14.4722 11.9924 14.4722 12.54H15.4722C15.4722 12.2343 15.5666 12.0365 15.7276 11.8908L15.0567 11.1492ZM14.4722 12.54C14.4722 13.1193 14.6749 13.624 15.1041 13.9973L15.7603 13.2427C15.5762 13.0826 15.4722 12.8673 15.4722 12.54H14.4722ZM15.1137 14.0055C15.5365 14.3547 16.0824 14.5 16.6922 14.5V13.5C16.2353 13.5 15.9412 13.392 15.7506 13.2345L15.1137 14.0055ZM24.3844 16H23.8844V16.5H24.3844V16ZM24.3844 13.28V12.78H23.8844V13.28H24.3844ZM28.1844 13.28V13.78H28.6844V13.28H28.1844ZM28.1844 7.7H28.6844V7.2H28.1844V7.7ZM24.8844 7.7H24.3844V8.2H24.8844V7.7ZM24.8844 5V4.5H24.3844V5H24.8844ZM30.9844 5H31.4844V4.5H30.9844V5ZM30.9844 13.28H30.4844V13.78H30.9844V13.28ZM34.1844 13.28H34.6844V12.78H34.1844V13.28ZM34.1844 16V16.5H34.6844V16H34.1844ZM28.0644 2.84L27.7351 3.21636L27.7428 3.22285L28.0644 2.84ZM28.0644 0.56L27.7427 0.17707L27.7351 0.183711L28.0644 0.56ZM30.6844 0.56L30.3551 0.936364L30.3628 0.942852L30.6844 0.56ZM30.6844 2.84L30.3627 2.45707L30.3551 2.46371L30.6844 2.84ZM24.8844 16V13.28H23.8844V16H24.8844ZM24.3844 13.78H28.1844V12.78H24.3844V13.78ZM28.6844 13.28V7.7H27.6844V13.28H28.6844ZM28.1844 7.2H24.8844V8.2H28.1844V7.2ZM25.3844 7.7V5H24.3844V7.7H25.3844ZM24.8844 5.5H30.9844V4.5H24.8844V5.5ZM30.4844 5V13.28H31.4844V5H30.4844ZM30.9844 13.78H34.1844V12.78H30.9844V13.78ZM33.6844 13.28V16H34.6844V13.28H33.6844ZM34.1844 15.5H24.3844V16.5H34.1844V15.5ZM29.3844 2.76C28.9244 2.76 28.6081 2.64372 28.386 2.45715L27.7428 3.22285C28.1873 3.59628 28.751 3.76 29.3844 3.76V2.76ZM28.3936 2.46371C28.1968 2.29149 28.0844 2.05653 28.0844 1.7H27.0844C27.0844 2.30347 27.2919 2.82851 27.7351 3.21629L28.3936 2.46371ZM28.0844 1.7C28.0844 1.34347 28.1968 1.10851 28.3936 0.936288L27.7351 0.183711C27.2919 0.571491 27.0844 1.09653 27.0844 1.7H28.0844ZM28.386 0.942852C28.6081 0.756283 28.9244 0.639999 29.3844 0.639999V-0.360001C28.751 -0.360001 28.1873 -0.196284 27.7428 0.177147L28.386 0.942852ZM29.3844 0.639999C29.8454 0.639999 30.1498 0.756664 30.3551 0.936288L31.0136 0.183712C30.5789 -0.196665 30.0167 -0.360001 29.3844 -0.360001V0.639999ZM30.3628 0.942852C30.5705 1.11736 30.6844 1.35057 30.6844 1.7H31.6844C31.6844 1.08943 31.4649 0.562642 31.006 0.177147L30.3628 0.942852ZM30.6844 1.7C30.6844 2.04943 30.5705 2.28264 30.3628 2.45715L31.006 3.22285C31.4649 2.83736 31.6844 2.31057 31.6844 1.7H30.6844ZM30.3551 2.46371C30.1498 2.64333 29.8454 2.76 29.3844 2.76V3.76C30.0167 3.76 30.5789 3.59666 31.0136 3.21629L30.3551 2.46371ZM40.7366 15.52L40.4895 15.9548L40.4971 15.9589L40.7366 15.52ZM39.3566 14.14L38.9175 14.3795L38.9218 14.387L39.3566 14.14ZM38.8766 4.1H39.3766V3.6H38.8766V4.1ZM35.4766 4.1H34.9766V4.6H35.4766V4.1ZM35.4766 1.4V0.9H34.9766V1.4H35.4766ZM41.8766 1.4H42.3766V0.9H41.8766V1.4ZM42.1966 12.98L41.8325 13.3227L41.8428 13.3337L41.8539 13.3441L42.1966 12.98ZM46.2766 13.3H46.7766V12.8H46.2766V13.3ZM46.2766 16V16.5H46.7766V16H46.2766ZM42.7766 15.5C42.0736 15.5 41.4784 15.3551 40.976 15.0811L40.4971 15.9589C41.1681 16.3249 41.9328 16.5 42.7766 16.5V15.5ZM40.9836 15.0853C40.4752 14.7965 40.0801 14.4013 39.7913 13.893L38.9218 14.387C39.2997 15.052 39.8245 15.5769 40.4896 15.9547L40.9836 15.0853ZM39.7955 13.9006C39.5215 13.3982 39.3766 12.8029 39.3766 12.1H38.3766C38.3766 12.9437 38.5517 13.7085 38.9176 14.3794L39.7955 13.9006ZM39.3766 12.1V4.1H38.3766V12.1H39.3766ZM38.8766 3.6H35.4766V4.6H38.8766V3.6ZM35.9766 4.1V1.4H34.9766V4.1H35.9766ZM35.4766 1.9H41.8766V0.9H35.4766V1.9ZM41.3766 1.4V12.1H42.3766V1.4H41.3766ZM41.3766 12.1C41.3766 12.566 41.5182 12.9888 41.8325 13.3227L42.5607 12.6373C42.4483 12.5179 42.3766 12.354 42.3766 12.1H41.3766ZM41.8539 13.3441C42.1878 13.6584 42.6106 13.8 43.0766 13.8V12.8C42.8225 12.8 42.6587 12.7283 42.5392 12.6159L41.8539 13.3441ZM43.0766 13.8H46.2766V12.8H43.0766V13.8ZM45.7766 13.3V16H46.7766V13.3H45.7766ZM46.2766 15.5H42.7766V16.5H46.2766V15.5ZM50.4888 15.66L50.2619 16.1056L50.2684 16.1088L50.4888 15.66ZM48.7688 14.12L48.3399 14.3773L48.3462 14.3873L48.7688 14.12ZM48.7688 3.28L48.3462 3.01265L48.3423 3.01892L48.7688 3.28ZM50.4888 1.76L50.7091 2.20888L50.7156 2.20558L50.4888 1.76ZM55.6088 1.76L55.3785 2.20398L55.3884 2.20883L55.6088 1.76ZM57.3088 3.28L56.8823 3.5411L56.8862 3.54732L57.3088 3.28ZM57.9288 5.6V6.1H58.4288V5.6H57.9288ZM54.9288 5.6H54.4288V6.1H54.9288V5.6ZM54.4288 4.26L54.0827 4.62107L54.0902 4.62797L54.4288 4.26ZM51.6488 4.26L51.3102 3.89196L51.3028 3.89901L51.6488 4.26ZM51.6488 13.14L51.2952 13.4936L51.3026 13.5009L51.3102 13.508L51.6488 13.14ZM54.4288 13.14L54.7747 13.501L54.775 13.5007L54.4288 13.14ZM54.9288 10.54H55.4288V10.04H54.9288V10.54ZM52.7688 10.54H52.2688V11.04H52.7688V10.54ZM52.7688 8V7.5H52.2688V8H52.7688ZM57.9288 8H58.4288V7.5H57.9288V8ZM57.3088 14.12L56.8838 13.8565L56.8823 13.8589L57.3088 14.12ZM55.6088 15.66L55.8324 16.1072L55.8356 16.1056L55.6088 15.66ZM53.0488 15.7C52.1373 15.7 51.3619 15.5317 50.7091 15.2112L50.2684 16.1088C51.0822 16.5083 52.0135 16.7 53.0488 16.7V15.7ZM50.7156 15.2144C50.057 14.8791 49.5535 14.4252 49.1913 13.8527L48.3462 14.3873C48.8107 15.1215 49.4539 15.6942 50.2619 16.1056L50.7156 15.2144ZM49.1975 13.8628C48.85 13.2836 48.6688 12.6016 48.6688 11.8H47.6688C47.6688 12.7584 47.8875 13.623 48.34 14.3772L49.1975 13.8628ZM48.6688 11.8V5.6H47.6688V11.8H48.6688ZM48.6688 5.6C48.6688 4.78327 48.8508 4.10355 49.1952 3.54108L48.3423 3.01892C47.8867 3.76312 47.6688 4.63007 47.6688 5.6H48.6688ZM49.1913 3.54732C49.5524 2.97649 50.0537 2.53056 50.7091 2.20883L50.2684 1.31117C49.4571 1.70944 48.8117 2.27684 48.3462 3.01268L49.1913 3.54732ZM50.7156 2.20558C51.3669 1.87401 52.1399 1.7 53.0488 1.7V0.7C52.0109 0.7 51.0773 0.899327 50.2619 1.31442L50.7156 2.20558ZM53.0488 1.7C53.9725 1.7 54.7435 1.87457 55.3786 2.20388L55.8389 1.31612C55.034 0.898759 54.0984 0.7 53.0488 0.7V1.7ZM55.3884 2.20883C56.0425 2.52995 56.5352 2.97404 56.8823 3.54108L57.7352 3.01892C57.2823 2.27929 56.6416 1.71005 55.8291 1.31117L55.3884 2.20883ZM56.8862 3.54732C57.2415 4.10886 57.4288 4.78628 57.4288 5.6H58.4288C58.4288 4.62705 58.2027 3.75781 57.7313 3.01268L56.8862 3.54732ZM57.9288 5.1H54.9288V6.1H57.9288V5.1ZM55.4288 5.6C55.4288 4.91716 55.2318 4.31937 54.7673 3.89203L54.0902 4.62797C54.2924 4.81396 54.4288 5.10951 54.4288 5.6H55.4288ZM54.7747 3.89901C54.3327 3.47542 53.7311 3.3 53.0488 3.3V4.3C53.5664 4.3 53.8848 4.43125 54.0828 4.62099L54.7747 3.89901ZM53.0488 3.3C52.365 3.3 51.7625 3.47595 51.3102 3.89203L51.9873 4.62797C52.2017 4.43072 52.5325 4.3 53.0488 4.3V3.3ZM51.3028 3.89901C50.8555 4.32766 50.6688 4.92303 50.6688 5.6H51.6688C51.6688 5.10363 51.802 4.80567 51.9947 4.62099L51.3028 3.89901ZM50.6688 5.6V11.8H51.6688V5.6H50.6688ZM50.6688 11.8C50.6688 12.4687 50.858 13.0564 51.2952 13.4936L52.0023 12.7864C51.7995 12.5836 51.6688 12.2779 51.6688 11.8H50.6688ZM51.3102 13.508C51.7625 13.9241 52.365 14.1 53.0488 14.1V13.1C52.5325 13.1 52.2017 12.9693 51.9873 12.772L51.3102 13.508ZM53.0488 14.1C53.7311 14.1 54.3327 13.9246 54.7747 13.501L54.0828 12.779C53.8848 12.9688 53.5664 13.1 53.0488 13.1V14.1ZM54.775 13.5007C55.2292 13.0647 55.4288 12.4745 55.4288 11.8H54.4288C54.4288 12.2721 54.295 12.5753 54.0825 12.7793L54.775 13.5007ZM55.4288 11.8V10.54H54.4288V11.8H55.4288ZM54.9288 10.04H52.7688V11.04H54.9288V10.04ZM53.2688 10.54V8H52.2688V10.54H53.2688ZM52.7688 8.5H57.9288V7.5H52.7688V8.5ZM57.4288 8V11.8H58.4288V8H57.4288ZM57.4288 11.8C57.4288 12.5986 57.2423 13.2783 56.8838 13.8565L57.7337 14.3835C58.2019 13.6283 58.4288 12.7614 58.4288 11.8H57.4288ZM56.8823 13.8589C56.5341 14.4276 56.0393 14.8797 55.3819 15.2144L55.8356 16.1056C56.6449 15.6936 57.2834 15.119 57.7352 14.3811L56.8823 13.8589ZM55.3851 15.2128C54.7485 15.5311 53.975 15.7 53.0488 15.7V16.7C54.0958 16.7 55.029 16.5089 55.8324 16.1072L55.3851 15.2128ZM61.4809 15L61.1332 15.3593L61.1361 15.3621L61.4809 15ZM60.2409 5V4.5H59.7409V5H60.2409ZM63.2409 5H63.7409V4.5H63.2409V5ZM63.6809 13.12L63.3055 13.4504L63.3124 13.4579L63.6809 13.12ZM66.2209 13.12L65.853 12.7815L65.8524 12.7821L66.2209 13.12ZM66.6809 5V4.5H66.1809V5H66.6809ZM69.6809 5H70.1809V4.5H69.6809V5ZM68.4209 15.02L68.7627 15.385L68.7658 15.3821L68.4209 15.02ZM64.9609 15.7C63.5724 15.7 62.5491 15.3269 61.8258 14.6379L61.1361 15.3621C62.0927 16.2731 63.3894 16.7 64.9609 16.7V15.7ZM61.8286 14.6407C61.1189 13.9538 60.7409 13.0011 60.7409 11.72H59.7409C59.7409 13.2122 60.1897 14.4462 61.1332 15.3593L61.8286 14.6407ZM60.7409 11.72V5H59.7409V11.72H60.7409ZM60.2409 5.5H63.2409V4.5H60.2409V5.5ZM62.7409 5V11.7H63.7409V5H62.7409ZM62.7409 11.7C62.7409 12.3885 62.9058 12.996 63.3056 13.4503L64.0563 12.7897C63.8694 12.5773 63.7409 12.2381 63.7409 11.7H62.7409ZM63.3124 13.4579C63.726 13.9092 64.3039 14.1 64.9609 14.1V13.1C64.498 13.1 64.2225 12.9708 64.0495 12.7821L63.3124 13.4579ZM64.9609 14.1C65.6089 14.1 66.1781 13.9067 66.5895 13.4579L65.8524 12.7821C65.6771 12.9733 65.4063 13.1 64.9609 13.1V14.1ZM66.5889 13.4585C67.0067 13.0044 67.1809 12.3937 67.1809 11.7H66.1809C66.1809 12.233 66.0485 12.569 65.853 12.7815L66.5889 13.4585ZM67.1809 11.7V5H66.1809V11.7H67.1809ZM66.6809 5.5H69.6809V4.5H66.6809V5.5ZM69.1809 5V11.72H70.1809V5H69.1809ZM69.1809 11.72C69.1809 13.0136 68.7969 13.9714 68.0761 14.6579L68.7658 15.3821C69.725 14.4686 70.1809 13.2264 70.1809 11.72H69.1809ZM68.0792 14.6551C67.3552 15.333 66.3369 15.7 64.9609 15.7V16.7C66.5183 16.7 67.8066 16.2803 68.7627 15.3849L68.0792 14.6551ZM72.3531 16H71.8531V16.5H72.3531V16ZM72.3531 13.28V12.78H71.8531V13.28H72.3531ZM76.1531 13.28V13.78H76.6531V13.28H76.1531ZM76.1531 7.7H76.6531V7.2H76.1531V7.7ZM72.8531 7.7H72.3531V8.2H72.8531V7.7ZM72.8531 5V4.5H72.3531V5H72.8531ZM78.9531 5H79.4531V4.5H78.9531V5ZM78.9531 13.28H78.4531V13.78H78.9531V13.28ZM82.1531 13.28H82.6531V12.78H82.1531V13.28ZM82.1531 16V16.5H82.6531V16H82.1531ZM76.0331 2.84L75.7038 3.21636L75.7115 3.22285L76.0331 2.84ZM76.0331 0.56L75.7115 0.17707L75.7039 0.183711L76.0331 0.56ZM78.6531 0.56L78.3238 0.936364L78.3315 0.942852L78.6531 0.56ZM78.6531 2.84L78.3315 2.45707L78.3239 2.46371L78.6531 2.84ZM72.8531 16V13.28H71.8531V16H72.8531ZM72.3531 13.78H76.1531V12.78H72.3531V13.78ZM76.6531 13.28V7.7H75.6531V13.28H76.6531ZM76.1531 7.2H72.8531V8.2H76.1531V7.2ZM73.3531 7.7V5H72.3531V7.7H73.3531ZM72.8531 5.5H78.9531V4.5H72.8531V5.5ZM78.4531 5V13.28H79.4531V5H78.4531ZM78.9531 13.78H82.1531V12.78H78.9531V13.78ZM81.6531 13.28V16H82.6531V13.28H81.6531ZM82.1531 15.5H72.3531V16.5H82.1531V15.5ZM77.3531 2.76C76.8932 2.76 76.5768 2.64372 76.3547 2.45715L75.7115 3.22285C76.1561 3.59628 76.7198 3.76 77.3531 3.76V2.76ZM76.3624 2.46371C76.1656 2.29149 76.0531 2.05653 76.0531 1.7H75.0531C75.0531 2.30347 75.2607 2.82851 75.7039 3.21629L76.3624 2.46371ZM76.0531 1.7C76.0531 1.34347 76.1656 1.10851 76.3624 0.936288L75.7039 0.183711C75.2607 0.571491 75.0531 1.09653 75.0531 1.7H76.0531ZM76.3547 0.942852C76.5768 0.756283 76.8932 0.639999 77.3531 0.639999V-0.360001C76.7198 -0.360001 76.1561 -0.196284 75.7115 0.177147L76.3547 0.942852ZM77.3531 0.639999C77.8142 0.639999 78.1186 0.756664 78.3239 0.936288L78.9824 0.183712C78.5477 -0.196665 77.9854 -0.360001 77.3531 -0.360001V0.639999ZM78.3315 0.942852C78.5393 1.11736 78.6531 1.35057 78.6531 1.7H79.6531C79.6531 1.08943 79.4336 0.562642 78.9747 0.177147L78.3315 0.942852ZM78.6531 1.7C78.6531 2.04943 78.5393 2.28264 78.3315 2.45715L78.9747 3.22285C79.4336 2.83736 79.6531 2.31057 79.6531 1.7H78.6531ZM78.3239 2.46371C78.1186 2.64333 77.8142 2.76 77.3531 2.76V3.76C77.9854 3.76 78.5477 3.59666 78.9824 3.21629L78.3239 2.46371ZM87.4653 15.66L87.1054 16.0071L87.1117 16.0136L87.1182 16.0199L87.4653 15.66ZM87.4653 12.7L87.1182 12.34L87.1118 12.3464L87.4653 12.7ZM90.4253 15.66L90.7789 16.0136L90.7852 16.0071L90.4253 15.66ZM88.9453 15.7C88.4362 15.7 88.0758 15.5541 87.8124 15.3001L87.1182 16.0199C87.6015 16.4859 88.2278 16.7 88.9453 16.7V15.7ZM87.8252 15.3129C87.5712 15.0495 87.4253 14.6891 87.4253 14.18H86.4253C86.4253 14.8975 86.6394 15.5238 87.1054 16.0071L87.8252 15.3129ZM87.4253 14.18C87.4253 13.6534 87.5734 13.2991 87.8189 13.0536L87.1118 12.3464C86.6373 12.8209 86.4253 13.4532 86.4253 14.18H87.4253ZM87.8124 13.0599C88.0758 12.8059 88.4362 12.66 88.9453 12.66V11.66C88.2278 11.66 87.6015 11.8741 87.1182 12.3401L87.8124 13.0599ZM88.9453 12.66C89.4719 12.66 89.8263 12.808 90.0718 13.0536L90.7789 12.3464C90.3044 11.872 89.6721 11.66 88.9453 11.66V12.66ZM90.0718 13.0536C90.3173 13.2991 90.4653 13.6534 90.4653 14.18H91.4653C91.4653 13.4532 91.2534 12.8209 90.7789 12.3464L90.0718 13.0536ZM90.4653 14.18C90.4653 14.6891 90.3194 15.0495 90.0654 15.3129L90.7852 16.0071C91.2512 15.5238 91.4653 14.8975 91.4653 14.18H90.4653ZM90.0718 15.3064C89.8263 15.552 89.4719 15.7 88.9453 15.7V16.7C89.6721 16.7 90.3044 16.488 90.7789 16.0136L90.0718 15.3064Z" fill="white" mask="url(#path-1-outside-1_16_2)"/>
</svg>
