<svg width="91" height="17" viewBox="0 0 91 17" fill="none" xmlns="http://www.w3.org/2000/svg">
<path d="M0.32 16V1.4H5.02C6.5 1.4 7.68 1.74 8.56 2.42C9.44 3.08667 9.88 3.99333 9.88 5.14C9.88 5.78 9.72667 6.34 9.42 6.82C9.12667 7.3 8.72667 7.67333 8.22 7.94C7.72667 8.20667 7.18667 8.34 6.6 8.34V8.4C7.25333 8.38667 7.84667 8.50667 8.38 8.76C8.92667 9.01333 9.36667 9.39333 9.7 9.9C10.0333 10.4067 10.2 11.0333 10.2 11.78C10.2 12.6333 9.99333 13.38 9.58 14.02C9.18 14.6467 8.60667 15.1333 7.86 15.48C7.11333 15.8267 6.22667 16 5.2 16H0.32ZM3.22 13.58H5.08C5.73333 13.58 6.24667 13.4067 6.62 13.06C6.99333 12.7133 7.18 12.2333 7.18 11.62C7.18 11.0067 6.99333 10.5267 6.62 10.18C6.24667 9.82 5.73333 9.64 5.08 9.64H3.22V13.58ZM3.22 7.28H4.98C5.56667 7.28 6.02667 7.12667 6.36 6.82C6.69333 6.5 6.86 6.07333 6.86 5.54C6.86 4.99333 6.69333 4.57333 6.36 4.28C6.02667 3.97333 5.56667 3.82 4.98 3.82H3.22V7.28ZM15.5722 16.2C14.4655 16.2 13.5855 15.9 12.9322 15.3C12.2922 14.7 11.9722 13.8867 11.9722 12.86C11.9722 11.7533 12.3522 10.9067 13.1122 10.32C13.8855 9.72 14.9922 9.42 16.4322 9.42H18.7122V8.6C18.7122 8.17333 18.5589 7.83333 18.2522 7.58C17.9589 7.32667 17.5589 7.2 17.0522 7.2C16.5855 7.2 16.1989 7.30667 15.8922 7.52C15.5855 7.73333 15.3989 8.02667 15.3322 8.4H12.4322C12.5522 7.29333 13.0322 6.42 13.8722 5.78C14.7255 5.12667 15.8189 4.8 17.1522 4.8C18.5522 4.8 19.6589 5.14667 20.4722 5.84C21.2989 6.52 21.7122 7.44 21.7122 8.6V16H18.8122V14.2H18.3322L18.8322 13.5C18.8322 14.3267 18.5322 14.9867 17.9322 15.48C17.3455 15.96 16.5589 16.2 15.5722 16.2ZM16.6922 14C17.2789 14 17.7589 13.8467 18.1322 13.54C18.5189 13.22 18.7122 12.8067 18.7122 12.3V11.12H16.4922C16.0389 11.12 15.6722 11.2533 15.3922 11.52C15.1122 11.7733 14.9722 12.1133 14.9722 12.54C14.9722 12.9933 15.1255 13.3533 15.4322 13.62C15.7389 13.8733 16.1589 14 16.6922 14ZM24.3844 16V13.28H28.1844V7.7H24.8844V5H30.9844V13.28H34.1844V16H24.3844ZM29.3844 3.26C28.8377 3.26 28.3977 3.12 28.0644 2.84C27.7444 2.56 27.5844 2.18 27.5844 1.7C27.5844 1.22 27.7444 0.839999 28.0644 0.56C28.3977 0.279999 28.8377 0.139999 29.3844 0.139999C29.931 0.139999 30.3644 0.279999 30.6844 0.56C31.0177 0.839999 31.1844 1.22 31.1844 1.7C31.1844 2.18 31.0177 2.56 30.6844 2.84C30.3644 3.12 29.931 3.26 29.3844 3.26ZM42.7766 16C42.0032 16 41.3232 15.84 40.7366 15.52C40.1499 15.1867 39.6899 14.7267 39.3566 14.14C39.0366 13.5533 38.8766 12.8733 38.8766 12.1V4.1H35.4766V1.4H41.8766V12.1C41.8766 12.46 41.9832 12.7533 42.1966 12.98C42.4232 13.1933 42.7166 13.3 43.0766 13.3H46.2766V16H42.7766ZM53.0488 16.2C52.0754 16.2 51.2221 16.02 50.4888 15.66C49.7554 15.2867 49.1821 14.7733 48.7688 14.12C48.3688 13.4533 48.1688 12.68 48.1688 11.8V5.6C48.1688 4.70667 48.3688 3.93333 48.7688 3.28C49.1821 2.62667 49.7554 2.12 50.4888 1.76C51.2221 1.38667 52.0754 1.2 53.0488 1.2C54.0354 1.2 54.8888 1.38667 55.6088 1.76C56.3421 2.12 56.9088 2.62667 57.3088 3.28C57.7221 3.93333 57.9288 4.70667 57.9288 5.6H54.9288C54.9288 5.01333 54.7621 4.56667 54.4288 4.26C54.1088 3.95333 53.6488 3.8 53.0488 3.8C52.4488 3.8 51.9821 3.95333 51.6488 4.26C51.3288 4.56667 51.1688 5.01333 51.1688 5.6V11.8C51.1688 12.3733 51.3288 12.82 51.6488 13.14C51.9821 13.4467 52.4488 13.6 53.0488 13.6C53.6488 13.6 54.1088 13.4467 54.4288 13.14C54.7621 12.82 54.9288 12.3733 54.9288 11.8V10.54H52.7688V8H57.9288V11.8C57.9288 12.68 57.7221 13.4533 57.3088 14.12C56.9088 14.7733 56.3421 15.2867 55.6088 15.66C54.8888 16.02 54.0354 16.2 53.0488 16.2ZM64.9609 16.2C63.4809 16.2 62.3209 15.8 61.4809 15C60.6543 14.2 60.2409 13.1067 60.2409 11.72V5H63.2409V11.7C63.2409 12.3133 63.3876 12.7867 63.6809 13.12C63.9743 13.44 64.4009 13.6 64.9609 13.6C65.5076 13.6 65.9276 13.44 66.2209 13.12C66.5276 12.7867 66.6809 12.3133 66.6809 11.7V5H69.6809V11.72C69.6809 13.12 69.2609 14.22 68.4209 15.02C67.5809 15.8067 66.4276 16.2 64.9609 16.2ZM72.3531 16V13.28H76.1531V7.7H72.8531V5H78.9531V13.28H82.1531V16H72.3531ZM77.3531 3.26C76.8065 3.26 76.3665 3.12 76.0331 2.84C75.7131 2.56 75.5531 2.18 75.5531 1.7C75.5531 1.22 75.7131 0.839999 76.0331 0.56C76.3665 0.279999 76.8065 0.139999 77.3531 0.139999C77.8998 0.139999 78.3331 0.279999 78.6531 0.56C78.9865 0.839999 79.1531 1.22 79.1531 1.7C79.1531 2.18 78.9865 2.56 78.6531 2.84C78.3331 3.12 77.8998 3.26 77.3531 3.26ZM88.9453 16.2C88.332 16.2 87.8386 16.02 87.4653 15.66C87.1053 15.2867 86.9253 14.7933 86.9253 14.18C86.9253 13.5533 87.1053 13.06 87.4653 12.7C87.8386 12.34 88.332 12.16 88.9453 12.16C89.572 12.16 90.0653 12.34 90.4253 12.7C90.7853 13.06 90.9653 13.5533 90.9653 14.18C90.9653 14.7933 90.7853 15.2867 90.4253 15.66C90.0653 16.02 89.572 16.2 88.9453 16.2Z" fill="#7E2835"/>
</svg>
